<svg xmlns="http://www.w3.org/2000/svg" xmlns:xlink="http://www.w3.org/1999/xlink" width="500" zoomAndPan="magnify" viewBox="0 0 375 374.999991" height="500" preserveAspectRatio="xMidYMid meet" version="1.2"><defs><clipPath id="33073326f2"><path d="M 68.492188 69 L 306.242188 69 L 306.242188 306 L 68.492188 306 Z M 68.492188 69 "/></clipPath></defs><g id="be467a4beb"><path style=" stroke:none;fill-rule:evenodd;fill:#c17900;fill-opacity:1;" d="M 73.058594 190.527344 C 73.058594 190.527344 66.957031 196.726562 73.058594 209.34375 L 159.847656 303.25 C 154.726562 295.277344 159.847656 284.429688 159.847656 284.429688 L 141.5625 264.644531 L 134.941406 267.195312 L 122.808594 244.351562 Z M 73.058594 190.527344 "/><path style=" stroke:none;fill-rule:evenodd;fill:#c17900;fill-opacity:1;" d="M 298.03125 203.75 C 298.03125 203.75 302.402344 206.738281 304.382812 210.171875 L 235.339844 218.753906 L 229.089844 219.527344 C 229.507812 218.820312 229.941406 218.140625 230.390625 217.46875 C 230.773438 216.925781 231.167969 216.40625 231.574219 215.902344 C 231.699219 215.746094 231.824219 215.597656 231.949219 215.445312 C 245.460938 199.359375 271.402344 203.519531 298.03125 203.75 Z M 298.03125 203.75 "/><path style=" stroke:none;fill-rule:evenodd;fill:#dddbee;fill-opacity:1;" d="M 298.03125 203.75 L 285.304688 194.574219 C 262.550781 195.414062 242.972656 200.367188 231.523438 215.863281 L 231.574219 215.902344 C 231.699219 215.746094 231.824219 215.597656 231.949219 215.445312 C 245.460938 199.359375 271.402344 203.519531 298.03125 203.75 Z M 298.03125 203.75 "/><path style=" stroke:none;fill-rule:evenodd;fill:#dddbee;fill-opacity:1;" d="M 264.136719 259.347656 L 159.847656 303.25 C 154.726562 295.277344 159.847656 284.429688 159.847656 284.429688 L 264.136719 240.527344 C 259.648438 245.046875 258.78125 252.964844 264.136719 259.347656 Z M 264.136719 259.347656 "/><path style=" stroke:none;fill-rule:evenodd;fill:#dddbee;fill-opacity:1;" d="M 141.113281 166.285156 C 137.109375 167.871094 132.996094 169.808594 128.804688 171.988281 C 119.652344 176.746094 110.128906 182.671875 100.574219 188.699219 L 138.125 250.5 C 176.847656 225.816406 212.261719 206.742188 228.949219 219.421875 L 205.621094 196.273438 L 179.410156 170.273438 C 179.632812 170.917969 179.75 171.601562 179.75 172.296875 L 179.75 173.769531 C 179.75 175.398438 179.105469 176.964844 177.949219 178.117188 C 176.796875 179.273438 175.234375 179.917969 173.601562 179.917969 L 143.410156 179.917969 C 141.78125 179.917969 140.210938 179.273438 139.058594 178.117188 C 137.90625 176.964844 137.257812 175.398438 137.257812 173.769531 L 137.257812 172.296875 C 137.257812 170.667969 137.90625 169.101562 139.058594 167.953125 C 139.664062 167.347656 140.378906 166.882812 141.152344 166.578125 C 141.140625 166.480469 141.125 166.382812 141.113281 166.285156 Z M 145.859375 193.785156 L 143.410156 193.785156 C 141.78125 193.785156 140.210938 193.136719 139.058594 191.988281 C 137.90625 190.832031 137.257812 189.265625 137.257812 187.636719 L 137.257812 186.167969 C 137.257812 184.535156 137.90625 182.96875 139.058594 181.816406 C 140.210938 180.664062 141.78125 180.015625 143.410156 180.015625 L 173.601562 180.015625 C 175.234375 180.015625 176.796875 180.664062 177.949219 181.816406 C 179.105469 182.96875 179.75 184.535156 179.75 186.167969 L 179.75 187.636719 C 179.75 189.265625 179.105469 190.832031 177.949219 191.988281 C 176.796875 193.136719 175.234375 193.785156 173.601562 193.785156 L 171.152344 193.785156 C 171.152344 200.765625 165.484375 206.433594 158.507812 206.433594 C 151.527344 206.433594 145.859375 200.765625 145.859375 193.785156 Z M 145.859375 193.785156 "/><path style=" stroke:none;fill-rule:evenodd;fill:#c17900;fill-opacity:1;" d="M 173.601562 193.785156 L 143.410156 193.785156 C 141.78125 193.785156 140.210938 193.136719 139.058594 191.988281 C 137.90625 190.832031 137.257812 189.265625 137.257812 187.636719 L 137.257812 186.167969 C 137.257812 184.535156 137.90625 182.96875 139.058594 181.816406 C 140.210938 180.664062 141.78125 180.015625 143.410156 180.015625 L 173.601562 180.015625 C 175.234375 180.015625 176.796875 180.664062 177.949219 181.816406 C 179.105469 182.96875 179.75 184.535156 179.75 186.167969 L 179.75 187.636719 C 179.75 189.265625 179.105469 190.832031 177.949219 191.988281 C 176.796875 193.136719 175.234375 193.785156 173.601562 193.785156 Z M 173.601562 193.785156 "/><path style=" stroke:none;fill-rule:evenodd;fill:#c17900;fill-opacity:1;" d="M 171.152344 193.785156 C 171.152344 200.765625 165.484375 206.433594 158.507812 206.433594 C 151.527344 206.433594 145.859375 200.765625 145.859375 193.785156 Z M 171.152344 193.785156 "/><path style=" stroke:none;fill-rule:evenodd;fill:#c17900;fill-opacity:1;" d="M 73.058594 190.527344 L 128.804688 171.988281 C 119.652344 176.746094 110.128906 182.671875 100.574219 188.699219 L 103.851562 194.089844 C 101.878906 195.308594 99.9375 196.523438 98.039062 197.722656 L 122.808594 244.351562 Z M 73.058594 190.527344 "/><path style=" stroke:none;fill-rule:evenodd;fill:#dddbee;fill-opacity:1;" d="M 229.089844 219.527344 C 229.507812 218.820312 229.941406 218.140625 230.390625 217.46875 C 229.933594 218.121094 229.492188 218.796875 229.070312 219.507812 Z M 229.089844 219.527344 "/><path style=" stroke:none;fill-rule:evenodd;fill:#dddbee;fill-opacity:1;" d="M 229.070312 219.507812 L 205.691406 196.328125 L 205.621094 196.273438 L 228.949219 219.421875 C 228.988281 219.449219 229.027344 219.480469 229.066406 219.507812 Z M 229.070312 219.507812 "/><path style=" stroke:none;fill-rule:evenodd;fill:#c17900;fill-opacity:1;" d="M 235.339844 218.753906 L 264.136719 240.527344 L 159.847656 284.429688 L 141.5625 264.644531 L 225.378906 232.433594 C 224.722656 227.5625 226.242188 223.34375 229.089844 219.527344 Z M 235.339844 218.753906 "/><path style=" stroke:none;fill-rule:evenodd;fill:#dddbee;fill-opacity:1;" d="M 285.304688 194.574219 C 288.542969 194.453125 291.855469 194.414062 295.210938 194.441406 L 229.089844 146.777344 C 210.285156 144.765625 193.097656 144.816406 182.101562 152.839844 C 179.222656 157.054688 176.351562 162.164062 175.707031 166.519531 C 176.542969 166.824219 177.308594 167.3125 177.949219 167.953125 C 178.613281 168.609375 179.109375 169.410156 179.410156 170.273438 L 205.691406 196.328125 L 229.070312 219.507812 C 229.492188 218.796875 229.933594 218.121094 230.390625 217.46875 C 230.761719 216.921875 231.136719 216.386719 231.523438 215.863281 C 242.972656 200.367188 262.550781 195.414062 285.304688 194.574219 Z M 285.304688 194.574219 "/><path style=" stroke:none;fill-rule:evenodd;fill:#dddbee;fill-opacity:1;" d="M 224.703125 198.789062 C 224.703125 198.789062 226.46875 184.714844 268.21875 186.019531 "/><path style=" stroke:none;fill-rule:evenodd;fill:#dddbee;fill-opacity:1;" d="M 213.824219 187.910156 C 213.824219 187.910156 215.589844 173.835938 257.339844 175.140625 "/><path style=" stroke:none;fill-rule:evenodd;fill:#dddbee;fill-opacity:1;" d="M 200.253906 175.054688 C 200.253906 175.054688 201.71875 163.34375 236.453125 164.433594 "/><path style=" stroke:none;fill-rule:evenodd;fill:#dddbee;fill-opacity:1;" d="M 191.203125 166 C 191.203125 166 192.667969 154.292969 227.402344 155.382812 "/><path style=" stroke:none;fill-rule:evenodd;fill:#dddbee;fill-opacity:1;" d="M 230.390625 217.46875 C 230.773438 216.925781 231.167969 216.40625 231.574219 215.902344 L 231.523438 215.863281 C 231.136719 216.386719 230.761719 216.921875 230.390625 217.46875 Z M 230.390625 217.46875 "/><path style=" stroke:none;fill-rule:evenodd;fill:#c17900;fill-opacity:1;" d="M 225.378906 232.433594 L 134.941406 267.195312 L 98.039062 197.722656 L 135.585938 259.523438 C 174.3125 234.835938 212.246094 206.792969 228.949219 219.421875 L 229.054688 219.527344 L 229.066406 219.507812 C 229.074219 219.519531 229.078125 219.523438 229.089844 219.527344 C 226.242188 223.34375 224.722656 227.5625 225.378906 232.433594 Z M 225.378906 232.433594 "/><path style=" stroke:none;fill-rule:evenodd;fill:#dddbee;fill-opacity:1;" d="M 188.667969 144.410156 C 188.667969 144.410156 185.378906 148.039062 182.101562 152.839844 C 179.222656 157.054688 176.351562 162.164062 175.707031 166.519531 C 175.039062 166.273438 174.328125 166.148438 173.601562 166.148438 L 143.410156 166.148438 C 142.628906 166.148438 141.863281 166.292969 141.152344 166.578125 C 141.140625 166.480469 141.125 166.382812 141.113281 166.285156 C 139.578125 156.984375 128.34375 144.410156 128.34375 144.410156 C 120.597656 136.675781 115.800781 125.988281 115.800781 114.1875 C 115.800781 90.617188 134.9375 71.480469 158.507812 71.480469 C 182.078125 71.480469 201.207031 90.617188 201.207031 114.1875 C 201.207031 125.988281 196.417969 136.675781 188.667969 144.410156 Z M 133.558594 115.394531 C 131.621094 113.390625 131.675781 110.191406 133.683594 108.253906 C 135.6875 106.316406 138.886719 106.375 140.824219 108.378906 L 154.808594 122.863281 L 176.074219 99.316406 C 177.941406 97.25 181.132812 97.082031 183.207031 98.953125 C 185.273438 100.820312 185.433594 104.015625 183.566406 106.082031 L 158.683594 133.644531 C 157.746094 134.683594 156.417969 135.289062 155.019531 135.3125 C 153.621094 135.335938 152.273438 134.777344 151.304688 133.769531 Z M 133.558594 115.394531 "/><path style=" stroke:none;fill-rule:evenodd;fill:#c17900;fill-opacity:1;" d="M 133.558594 115.394531 C 131.621094 113.390625 131.675781 110.191406 133.683594 108.253906 C 135.6875 106.316406 138.886719 106.375 140.824219 108.378906 L 154.808594 122.863281 L 176.074219 99.316406 C 177.941406 97.25 181.132812 97.082031 183.207031 98.953125 C 185.273438 100.820312 185.433594 104.015625 183.566406 106.082031 L 158.683594 133.644531 C 157.746094 134.683594 156.417969 135.289062 155.019531 135.3125 C 153.621094 135.335938 152.273438 134.777344 151.304688 133.769531 Z M 133.558594 115.394531 "/><path style=" stroke:none;fill-rule:evenodd;fill:#c17900;fill-opacity:1;" d="M 175.707031 166.519531 C 176.542969 166.824219 177.308594 167.3125 177.949219 167.953125 C 178.613281 168.609375 179.109375 169.410156 179.410156 170.273438 C 179.632812 170.917969 179.75 171.601562 179.75 172.296875 L 179.75 173.769531 C 179.75 175.398438 179.105469 176.964844 177.949219 178.117188 C 176.796875 179.273438 175.234375 179.917969 173.601562 179.917969 L 143.410156 179.917969 C 141.78125 179.917969 140.210938 179.273438 139.058594 178.117188 C 137.90625 176.964844 137.257812 175.398438 137.257812 173.769531 L 137.257812 172.296875 C 137.257812 170.667969 137.90625 169.101562 139.058594 167.953125 C 139.664062 167.347656 140.378906 166.882812 141.152344 166.578125 C 141.863281 166.292969 142.628906 166.148438 143.410156 166.148438 L 173.601562 166.148438 C 174.328125 166.148438 175.039062 166.273438 175.707031 166.519531 Z M 175.707031 166.519531 "/><path style=" stroke:none;fill-rule:evenodd;fill:#dddbee;fill-opacity:1;" d="M 205.691406 196.328125 L 179.410156 170.273438 L 205.621094 196.273438 Z M 205.691406 196.328125 "/><path style=" stroke:none;fill-rule:evenodd;fill:#dddbee;fill-opacity:1;" d="M 103.851562 194.089844 L 138.125 250.5 C 176.847656 225.816406 212.261719 206.742188 228.949219 219.421875 C 212.246094 206.792969 174.3125 234.835938 135.585938 259.523438 L 98.039062 197.722656 C 99.9375 196.523438 101.878906 195.308594 103.851562 194.089844 Z M 103.851562 194.089844 "/><path style=" stroke:none;fill-rule:evenodd;fill:#dddbee;fill-opacity:1;" d="M 228.949219 219.421875 L 229.054688 219.527344 L 229.066406 219.507812 C 229.027344 219.480469 228.988281 219.449219 228.949219 219.421875 Z M 228.949219 219.421875 "/><path style=" stroke:none;fill-rule:evenodd;fill:#dddbee;fill-opacity:1;" d="M 229.066406 219.507812 C 229.074219 219.519531 229.078125 219.523438 229.089844 219.527344 L 229.070312 219.507812 Z M 229.066406 219.507812 "/><g clip-rule="nonzero" clip-path="url(#33073326f2)"><path style=" stroke:none;fill-rule:evenodd;fill:#000000;fill-opacity:1;" d="M 71.386719 210.15625 C 64.597656 196.121094 71.738281 189.226562 71.738281 189.226562 C 71.949219 189.015625 72.199219 188.859375 72.472656 188.769531 L 128.078125 170.277344 C 131.773438 168.355469 135.414062 166.628906 138.972656 165.152344 C 136.792969 156.753906 127.644531 146.417969 126.992188 145.691406 C 118.929688 137.621094 113.941406 126.484375 113.941406 114.195312 C 113.941406 89.597656 133.914062 69.632812 158.503906 69.632812 C 183.097656 69.632812 203.066406 89.597656 203.066406 114.195312 C 203.066406 126.492188 198.074219 137.628906 190.007812 145.695312 C 189.878906 145.835938 189.382812 146.390625 188.652344 147.261719 C 199.558594 143.097656 213.890625 143.289062 229.285156 144.933594 C 229.605469 144.96875 229.910156 145.085938 230.171875 145.277344 L 296.300781 192.945312 C 296.953125 193.414062 297.230469 194.257812 296.980469 195.027344 C 296.726562 195.792969 296.003906 196.3125 295.191406 196.304688 C 293.746094 196.292969 292.304688 196.292969 290.882812 196.308594 L 299.121094 202.246094 C 299.558594 202.558594 303.9375 205.699219 305.988281 209.246094 C 306.300781 209.785156 306.324219 210.441406 306.046875 211 C 305.765625 211.558594 305.230469 211.941406 304.609375 212.019531 C 304.609375 212.019531 260.417969 217.511719 240.109375 220.035156 C 240.109375 220.035156 265.253906 239.046875 265.253906 239.046875 C 265.316406 239.097656 265.386719 239.15625 265.441406 239.210938 C 265.859375 239.625 266.046875 240.199219 265.976562 240.761719 C 265.925781 241.167969 265.746094 241.542969 265.453125 241.839844 C 261.5625 245.765625 260.914062 252.621094 265.558594 258.152344 C 265.679688 258.292969 265.773438 258.457031 265.847656 258.625 C 266.160156 259.378906 265.953125 260.25 265.328125 260.773438 C 265.183594 260.890625 265.027344 260.988281 264.855469 261.0625 L 160.566406 304.964844 C 159.847656 305.269531 159.011719 305.085938 158.484375 304.515625 L 71.699219 210.609375 C 71.574219 210.476562 71.46875 210.324219 71.386719 210.15625 Z M 73.324219 193.554688 C 72.21875 195.949219 71.082031 200.839844 74.5625 208.234375 C 77.683594 211.613281 137.214844 276.027344 155.75 296.085938 C 155.6875 295.050781 155.707031 294.03125 155.785156 293.042969 C 156.054688 289.5 157.058594 286.425781 157.679688 284.824219 L 141.050781 266.835938 L 135.605469 268.925781 C 134.726562 269.265625 133.738281 268.898438 133.296875 268.070312 L 121.28125 245.441406 Z M 111.558594 179.683594 C 96.164062 184.800781 76.378906 191.386719 76.378906 191.386719 L 114.445312 232.570312 L 96.398438 198.597656 C 95.9375 197.742188 96.222656 196.671875 97.046875 196.15625 C 98.445312 195.273438 99.867188 194.378906 101.304688 193.488281 L 98.984375 189.671875 C 98.460938 188.804688 98.722656 187.675781 99.578125 187.132812 C 103.589844 184.605469 107.589844 182.097656 111.558594 179.683594 Z M 135.554688 170.722656 C 133.613281 171.628906 131.644531 172.609375 129.664062 173.640625 C 121.046875 178.125 112.105469 183.640625 103.109375 189.300781 L 105.433594 193.121094 C 105.433594 193.125 138.726562 247.921875 138.726562 247.921875 C 161.542969 233.433594 183.152344 221.042969 200.402344 215.996094 C 208.140625 213.730469 215.046875 212.960938 220.859375 214.019531 L 181.515625 174.988281 C 181.257812 176.664062 180.476562 178.222656 179.261719 179.433594 C 179.070312 179.625 178.875 179.800781 178.667969 179.972656 C 178.871094 180.140625 179.070312 180.320312 179.261719 180.507812 C 180.765625 182.011719 181.609375 184.042969 181.609375 186.171875 L 181.609375 187.636719 C 181.609375 189.761719 180.765625 191.796875 179.261719 193.300781 C 177.761719 194.804688 175.722656 195.652344 173.601562 195.648438 L 172.890625 195.648438 C 171.972656 202.777344 165.878906 208.292969 158.503906 208.292969 C 151.128906 208.292969 145.03125 202.777344 144.121094 195.644531 L 143.410156 195.648438 C 141.28125 195.648438 139.246094 194.804688 137.746094 193.300781 C 136.242188 191.800781 135.402344 189.765625 135.398438 187.640625 L 135.402344 186.171875 C 135.398438 184.046875 136.242188 182.011719 137.746094 180.507812 C 137.9375 180.316406 138.132812 180.140625 138.339844 179.972656 C 138.136719 179.804688 137.9375 179.625 137.746094 179.433594 C 136.242188 177.933594 135.402344 175.894531 135.398438 173.773438 L 135.402344 172.304688 C 135.398438 171.769531 135.457031 171.238281 135.554688 170.722656 Z M 129.75 143.199219 C 130.265625 143.792969 140.136719 155.125 142.582031 164.335938 C 142.855469 164.3125 143.128906 164.296875 143.40625 164.296875 L 173.597656 164.292969 C 173.828125 164.292969 174.054688 164.304688 174.277344 164.324219 C 175.351562 160.316406 177.851562 155.90625 180.375 152.15625 C 180.472656 151.910156 180.625 151.683594 180.824219 151.492188 C 183.953125 146.949219 186.988281 143.507812 187.265625 143.1875 C 187.277344 143.179688 187.285156 143.171875 187.289062 143.167969 C 187.3125 143.140625 187.332031 143.121094 187.355469 143.097656 C 194.765625 135.699219 199.347656 125.480469 199.351562 114.191406 C 199.351562 91.648438 181.046875 73.347656 158.5 73.347656 C 135.960938 73.34375 117.65625 91.648438 117.652344 114.191406 C 117.652344 125.480469 122.246094 135.703125 129.652344 143.097656 C 129.675781 143.125 129.703125 143.148438 129.726562 143.171875 C 129.730469 143.183594 129.738281 143.191406 129.75 143.199219 Z M 285.238281 192.71875 C 286.640625 192.671875 288.054688 192.628906 289.484375 192.613281 C 289.484375 192.613281 228.398438 148.578125 228.398438 148.574219 C 210.40625 146.683594 193.945312 146.617188 183.347656 154.234375 C 180.984375 157.730469 178.6875 161.8125 177.796875 165.484375 C 178.324219 165.808594 178.816406 166.195312 179.261719 166.640625 C 180.015625 167.390625 180.601562 168.28125 181 169.246094 L 206.996094 195.011719 C 211.828125 199.808594 223.910156 211.785156 228.746094 216.578125 C 228.78125 216.53125 228.8125 216.484375 228.847656 216.4375 C 228.855469 216.425781 228.859375 216.414062 228.871094 216.402344 C 229.246094 215.84375 229.632812 215.296875 230.027344 214.765625 C 241.792969 198.839844 261.851562 193.585938 285.234375 192.722656 C 285.234375 192.722656 285.234375 192.722656 285.238281 192.71875 Z M 297.429688 205.609375 C 284.371094 205.464844 271.503906 204.410156 260.21875 205.335938 C 249.257812 206.234375 239.8125 208.976562 233.371094 216.644531 C 233.253906 216.785156 233.128906 216.929688 233.015625 217.074219 C 232.988281 217.109375 232.957031 217.148438 232.925781 217.179688 C 248.171875 215.289062 300.96875 208.726562 300.96875 208.726562 C 299.632812 207.292969 298.152344 206.140625 297.429688 205.609375 Z M 251.335938 202.816406 C 254.074219 202.257812 256.941406 201.878906 259.917969 201.632812 C 269.761719 200.828125 280.804688 201.503906 292.132812 201.789062 L 284.734375 196.457031 C 272.34375 196.957031 260.914062 198.691406 251.335938 202.816406 Z M 234.820312 220.6875 C 231.863281 221.058594 230.117188 221.277344 230.117188 221.277344 C 227.863281 224.527344 226.667969 228.089844 227.21875 232.183594 C 227.335938 233.042969 226.851562 233.859375 226.046875 234.167969 L 144.785156 265.398438 L 160.328125 282.21875 C 160.328125 282.21875 260.445312 240.066406 260.445312 240.066406 Z M 140.925781 262.90625 C 161.605469 254.957031 223.394531 231.203125 223.394531 231.203125 C 223.164062 227.105469 224.339844 223.414062 226.492188 220.023438 C 223.738281 218.449219 220.433594 217.9375 216.683594 218.226562 C 211.980469 218.59375 206.617188 220.203125 200.746094 222.691406 C 182.566406 230.375 159.722656 246.34375 136.585938 261.09375 C 136.160156 261.363281 135.652344 261.449219 135.167969 261.335938 C 134.679688 261.222656 134.257812 260.917969 133.996094 260.492188 L 129.882812 253.71875 L 135.808594 264.871094 C 136.953125 264.429688 138.699219 263.757812 140.925781 262.90625 Z M 259.480469 244.507812 L 161.257812 285.855469 C 160.765625 287.082031 159.742188 289.957031 159.488281 293.324219 C 159.304688 295.738281 159.503906 298.421875 160.664062 300.894531 L 261.242188 258.550781 C 258.261719 253.902344 257.929688 248.773438 259.480469 244.507812 Z M 103.234375 196.664062 C 102.339844 197.21875 101.453125 197.773438 100.570312 198.324219 C 100.570312 198.324219 136.1875 256.9375 136.1875 256.9375 C 155.078125 244.847656 173.71875 232.113281 189.746094 223.796875 C 174.671875 230.160156 157.269531 240.503906 139.121094 252.070312 C 138.703125 252.339844 138.191406 252.429688 137.699219 252.3125 C 137.214844 252.203125 136.796875 251.894531 136.539062 251.46875 Z M 141.410156 168.507812 C 141.03125 168.703125 140.679688 168.964844 140.375 169.265625 C 139.5625 170.070312 139.113281 171.164062 139.113281 172.300781 L 139.117188 173.773438 C 139.117188 174.910156 139.566406 176 140.371094 176.808594 C 141.179688 177.609375 142.269531 178.0625 143.40625 178.066406 L 173.597656 178.070312 C 174.742188 178.066406 175.832031 177.613281 176.636719 176.804688 C 177.441406 176.003906 177.894531 174.910156 177.894531 173.773438 L 177.890625 172.300781 C 177.894531 171.929688 177.84375 171.566406 177.753906 171.207031 C 177.574219 170.957031 177.472656 170.664062 177.433594 170.371094 C 177.234375 169.96875 176.964844 169.59375 176.632812 169.265625 C 176.300781 168.933594 175.917969 168.660156 175.496094 168.453125 C 175.328125 168.433594 175.160156 168.386719 175.007812 168.324219 C 174.878906 168.277344 174.761719 168.214844 174.65625 168.140625 C 174.308594 168.054688 173.960938 168.011719 173.601562 168.007812 L 143.410156 168.011719 C 143.011719 168.007812 142.625 168.066406 142.253906 168.167969 C 142.015625 168.34375 141.730469 168.460938 141.414062 168.503906 C 141.414062 168.503906 141.410156 168.507812 141.410156 168.507812 Z M 143.40625 191.933594 L 173.597656 191.933594 C 174.742188 191.933594 175.832031 191.480469 176.636719 190.671875 C 177.441406 189.871094 177.894531 188.777344 177.894531 187.640625 L 177.890625 186.171875 C 177.890625 185.035156 177.445312 183.941406 176.636719 183.132812 C 175.832031 182.328125 174.738281 181.878906 173.601562 181.878906 L 143.40625 181.875 C 142.265625 181.875 141.175781 182.328125 140.375 183.132812 C 139.566406 183.9375 139.113281 185.035156 139.113281 186.167969 L 139.117188 187.640625 C 139.117188 188.777344 139.5625 189.871094 140.375 190.675781 C 141.179688 191.480469 142.269531 191.933594 143.40625 191.933594 Z M 147.875 195.648438 C 148.757812 200.714844 153.1875 204.578125 158.503906 204.582031 C 163.824219 204.578125 168.253906 200.714844 169.132812 195.648438 Z M 215.667969 188.144531 C 215.539062 189.164062 214.609375 189.882812 213.59375 189.753906 C 212.578125 189.632812 211.855469 188.699219 211.980469 187.679688 C 211.980469 187.679688 212.320312 183.386719 218.984375 179.441406 C 224.792969 175.992188 235.949219 172.621094 257.394531 173.285156 C 258.417969 173.316406 259.226562 174.175781 259.195312 175.199219 C 259.164062 176.226562 258.304688 177.035156 257.28125 177.003906 C 236.980469 176.367188 226.375 179.375 220.871094 182.636719 C 216.207031 185.402344 215.667969 188.144531 215.667969 188.144531 Z M 226.546875 199.023438 C 226.417969 200.042969 225.488281 200.761719 224.472656 200.636719 C 223.453125 200.507812 222.734375 199.578125 222.859375 198.558594 C 222.859375 198.558594 223.203125 194.265625 229.855469 190.320312 C 235.671875 186.875 246.832031 183.5 268.273438 184.164062 C 269.296875 184.199219 270.109375 185.058594 270.074219 186.082031 C 270.042969 187.105469 269.179688 187.910156 268.15625 187.878906 C 247.851562 187.246094 237.261719 190.25 231.753906 193.515625 C 227.085938 196.28125 226.546875 199.023438 226.546875 199.023438 Z M 202.085938 175.347656 C 201.941406 176.253906 201.15625 176.917969 200.25 176.917969 C 200.175781 176.914062 200.09375 176.910156 200.015625 176.902344 C 199.003906 176.773438 198.277344 175.84375 198.40625 174.824219 C 198.40625 174.824219 198.671875 171.125 204.378906 167.742188 C 209.242188 164.859375 218.578125 162.019531 236.511719 162.578125 C 237.535156 162.605469 238.339844 163.46875 238.308594 164.492188 C 238.273438 165.515625 237.421875 166.324219 236.394531 166.292969 C 219.597656 165.765625 210.824219 168.238281 206.277344 170.9375 C 202.871094 172.953125 202.164062 174.945312 202.085938 175.347656 Z M 193.03125 166.292969 C 192.894531 167.203125 192.105469 167.863281 191.203125 167.863281 C 191.125 167.867188 191.046875 167.859375 190.96875 167.851562 C 189.949219 167.722656 189.230469 166.792969 189.359375 165.777344 C 189.359375 165.777344 189.621094 162.078125 195.328125 158.691406 C 200.191406 155.8125 209.523438 152.96875 227.460938 153.527344 C 228.484375 153.558594 229.292969 154.417969 229.261719 155.441406 C 229.222656 156.46875 228.367188 157.269531 227.34375 157.238281 C 210.546875 156.71875 201.777344 159.1875 197.226562 161.890625 C 193.820312 163.90625 193.117188 165.894531 193.03125 166.292969 Z M 132.21875 116.6875 C 129.570312 113.949219 129.648438 109.570312 132.394531 106.921875 C 135.132812 104.277344 139.511719 104.351562 142.15625 107.09375 C 142.15625 107.09375 154.761719 120.152344 154.761719 120.152344 L 174.691406 98.074219 C 177.25 95.242188 181.621094 95.019531 184.453125 97.578125 C 187.28125 100.128906 187.503906 104.5 184.945312 107.332031 L 160.058594 134.894531 C 158.777344 136.316406 156.960938 137.136719 155.050781 137.175781 C 153.136719 137.207031 151.296875 136.441406 149.964844 135.066406 Z M 134.894531 114.105469 L 152.640625 132.484375 C 153.25 133.121094 154.105469 133.472656 154.984375 133.457031 C 155.871094 133.445312 156.710938 133.0625 157.304688 132.40625 L 182.1875 104.839844 C 183.371094 103.535156 183.265625 101.515625 181.960938 100.335938 C 180.652344 99.152344 178.628906 99.257812 177.449219 100.566406 L 156.1875 124.113281 C 155.839844 124.496094 155.355469 124.71875 154.84375 124.722656 C 154.328125 124.738281 153.832031 124.53125 153.46875 124.15625 L 139.484375 109.671875 C 138.261719 108.402344 136.238281 108.371094 134.972656 109.59375 C 133.703125 110.816406 133.667969 112.84375 134.894531 114.105469 Z M 134.894531 114.105469 "/></g></g></svg>